<svg width="18" height="18" viewBox="0 0 18 18" xmlns="http://www.w3.org/2000/svg">
<path d="M8.99665 0C7.15858 0.000683934 5.36479 0.564137 3.85648 1.6146C2.34816 2.66506 1.19764 4.15215 0.55961 5.87593C-0.0784166 7.59971 -0.173355 9.47751 0.287561 11.2568C0.748477 13.0362 1.74315 14.6317 3.13782 15.829C4.5325 17.0262 6.26031 17.7677 8.08894 17.9538C9.91756 18.1398 11.7593 17.7615 13.3666 16.8698C14.9738 15.978 16.2694 14.6155 17.0793 12.9654C17.8892 11.3154 18.1744 9.45696 17.8966 7.64C17.1322 8.81604 15.9395 9.64777 14.5717 9.95855C13.2039 10.2693 11.7688 10.0347 10.5713 9.30443C9.3737 8.57418 8.50798 7.40585 8.15795 6.04758C7.80793 4.68931 8.00117 3.24809 8.69665 2.03C9.08827 1.26357 9.65741 0.601849 10.3566 0.0999999C9.91665 0.0399999 9.45665 0 8.99665 0Z"/>
</svg>
