<svg width="27" height="26" viewBox="0 0 27 26" fill="none" xmlns="http://www.w3.org/2000/svg">
<path d="M7.94118 20.5C6.48529 20.5 5.30735 21.625 5.30735 23C5.30735 24.375 6.48529 25.5 7.94118 25.5C9.39706 25.5 10.5882 24.375 10.5882 23C10.5882 21.625 9.39706 20.5 7.94118 20.5ZM0 0.5V3H2.64706L7.41177 12.4875L5.625 15.55C5.41324 15.9 5.29412 16.3125 5.29412 16.75C5.29412 18.125 6.48529 19.25 7.94118 19.25H23.8235V16.75H8.49706C8.31177 16.75 8.16618 16.6125 8.16618 16.4375L8.20588 16.2875L9.39706 14.25H19.2574C20.25 14.25 21.1235 13.7375 21.5735 12.9625L26.3118 4.85C26.4177 4.675 26.4706 4.4625 26.4706 4.25C26.4706 3.5625 25.875 3 25.1471 3H5.57206L4.32794 0.5H0ZM21.1765 20.5C19.7206 20.5 18.5427 21.625 18.5427 23C18.5427 24.375 19.7206 25.5 21.1765 25.5C22.6324 25.5 23.8235 24.375 23.8235 23C23.8235 21.625 22.6324 20.5 21.1765 20.5Z" />
</svg>
