<svg width="22" height="22" viewBox="0 0 22 22" xmlns="http://www.w3.org/2000/svg">
<path d="M11 6C9.67392 6 8.40215 6.52678 7.46447 7.46447C6.52678 8.40215 6 9.67392 6 11C6 12.3261 6.52678 13.5979 7.46447 14.5355C8.40215 15.4732 9.67392 16 11 16C12.3261 16 13.5979 15.4732 14.5355 14.5355C15.4732 13.5979 16 12.3261 16 11C16 9.67392 15.4732 8.40215 14.5355 7.46447C13.5979 6.52678 12.3261 6 11 6ZM1 12H3C3.26522 12 3.51957 11.8946 3.70711 11.7071C3.89464 11.5196 4 11.2652 4 11C4 10.7348 3.89464 10.4804 3.70711 10.2929C3.51957 10.1054 3.26522 10 3 10H1C0.734784 10 0.48043 10.1054 0.292893 10.2929C0.105357 10.4804 0 10.7348 0 11C0 11.2652 0.105357 11.5196 0.292893 11.7071C0.48043 11.8946 0.734784 12 1 12ZM19 12H21C21.2652 12 21.5196 11.8946 21.7071 11.7071C21.8946 11.5196 22 11.2652 22 11C22 10.7348 21.8946 10.4804 21.7071 10.2929C21.5196 10.1054 21.2652 10 21 10H19C18.7348 10 18.4804 10.1054 18.2929 10.2929C18.1054 10.4804 18 10.7348 18 11C18 11.2652 18.1054 11.5196 18.2929 11.7071C18.4804 11.8946 18.7348 12 19 12ZM10 1V3C10 3.26522 10.1054 3.51957 10.2929 3.70711C10.4804 3.89464 10.7348 4 11 4C11.2652 4 11.5196 3.89464 11.7071 3.70711C11.8946 3.51957 12 3.26522 12 3V1C12 0.734784 11.8946 0.48043 11.7071 0.292893C11.5196 0.105357 11.2652 0 11 0C10.7348 0 10.4804 0.105357 10.2929 0.292893C10.1054 0.48043 10 0.734784 10 1ZM10 19V21C10 21.2652 10.1054 21.5196 10.2929 21.7071C10.4804 21.8946 10.7348 22 11 22C11.2652 22 11.5196 21.8946 11.7071 21.7071C11.8946 21.5196 12 21.2652 12 21V19C12 18.7348 11.8946 18.4804 11.7071 18.2929C11.5196 18.1054 11.2652 18 11 18C10.7348 18 10.4804 18.1054 10.2929 18.2929C10.1054 18.4804 10 18.7348 10 19ZM4.99 3.58C4.90035 3.47532 4.79003 3.3903 4.66597 3.33027C4.5419 3.27025 4.40677 3.23652 4.26905 3.2312C4.13133 3.22588 3.994 3.24909 3.86568 3.29936C3.73735 3.34964 3.6208 3.42589 3.52335 3.52335C3.42589 3.6208 3.34964 3.73735 3.29936 3.86568C3.24909 3.994 3.22588 4.13133 3.2312 4.26905C3.23652 4.40677 3.27025 4.5419 3.33027 4.66597C3.3903 4.79003 3.47532 4.90035 3.58 4.99L4.64 6.05C4.72965 6.15468 4.83996 6.2397 4.96403 6.29973C5.08809 6.35975 5.22323 6.39348 5.36095 6.3988C5.49867 6.40412 5.636 6.38091 5.76432 6.33064C5.89265 6.28036 6.0092 6.2041 6.10665 6.10665C6.2041 6.0092 6.28036 5.89265 6.33064 5.76432C6.38091 5.636 6.40412 5.49867 6.3988 5.36095C6.39348 5.22323 6.35975 5.08809 6.29973 4.96403C6.2397 4.83996 6.15468 4.72965 6.05 4.64L4.99 3.58ZM17.36 15.95C17.2704 15.8453 17.16 15.7603 17.036 15.7003C16.9119 15.6403 16.7768 15.6065 16.6391 15.6012C16.5013 15.5959 16.364 15.6191 16.2357 15.6694C16.1074 15.7196 15.9908 15.7959 15.8934 15.8934C15.7959 15.9908 15.7196 16.1074 15.6694 16.2357C15.6191 16.364 15.5959 16.5013 15.6012 16.6391C15.6065 16.7768 15.6403 16.9119 15.7003 17.036C15.7603 17.16 15.8453 17.2704 15.95 17.36L17.01 18.42C17.0996 18.5247 17.21 18.6097 17.334 18.6697C17.4581 18.7297 17.5932 18.7635 17.7309 18.7688C17.8687 18.7741 18.006 18.7509 18.1343 18.7006C18.2626 18.6504 18.3792 18.5741 18.4767 18.4767C18.5741 18.3792 18.6504 18.2626 18.7006 18.1343C18.7509 18.006 18.7741 17.8687 18.7688 17.7309C18.7635 17.5932 18.7297 17.4581 18.6697 17.334C18.6097 17.21 18.5247 17.0996 18.42 17.01L17.36 15.95ZM18.42 4.99C18.5247 4.90035 18.6097 4.79003 18.6697 4.66597C18.7297 4.5419 18.7635 4.40677 18.7688 4.26905C18.7741 4.13133 18.7509 3.994 18.7006 3.86568C18.6504 3.73735 18.5741 3.6208 18.4767 3.52335C18.3792 3.42589 18.2626 3.34964 18.1343 3.29936C18.006 3.24909 17.8687 3.22588 17.7309 3.2312C17.5932 3.23652 17.4581 3.27025 17.334 3.33027C17.21 3.3903 17.0996 3.47532 17.01 3.58L15.95 4.64C15.8453 4.72965 15.7603 4.83996 15.7003 4.96403C15.6403 5.08809 15.6065 5.22323 15.6012 5.36095C15.5959 5.49867 15.6191 5.636 15.6694 5.76432C15.7196 5.89265 15.7959 6.0092 15.8934 6.10665C15.9908 6.2041 16.1074 6.28036 16.2357 6.33064C16.364 6.38091 16.5013 6.40412 16.6391 6.3988C16.7768 6.39348 16.9119 6.35975 17.036 6.29973C17.16 6.2397 17.2704 6.15468 17.36 6.05L18.42 4.99ZM6.05 17.36C6.15468 17.2704 6.2397 17.16 6.29973 17.036C6.35975 16.9119 6.39348 16.7768 6.3988 16.6391C6.40412 16.5013 6.38091 16.364 6.33064 16.2357C6.28036 16.1074 6.2041 15.9908 6.10665 15.8934C6.0092 15.7959 5.89265 15.7196 5.76432 15.6694C5.636 15.6191 5.49867 15.5959 5.36095 15.6012C5.22323 15.6065 5.08809 15.6403 4.96403 15.7003C4.83996 15.7603 4.72965 15.8453 4.64 15.95L3.58 17.01C3.47532 17.0996 3.3903 17.21 3.33027 17.334C3.27025 17.4581 3.23652 17.5932 3.2312 17.7309C3.22588 17.8687 3.24909 18.006 3.29936 18.1343C3.34964 18.2626 3.42589 18.3792 3.52335 18.4767C3.6208 18.5741 3.73735 18.6504 3.86568 18.7006C3.994 18.7509 4.13133 18.7741 4.26905 18.7688C4.40677 18.7635 4.5419 18.7297 4.66597 18.6697C4.79003 18.6097 4.90035 18.5247 4.99 18.42L6.05 17.36Z" />
</svg>
